<svg version="1.1" id="Layer_1" xmlns="http://www.w3.org/2000/svg" xmlns:xlink="http://www.w3.org/1999/xlink" x="0px" y="0px"
	 width="100%" viewBox="0 0 355 142" enable-background="new 0 0 355 142" xml:space="preserve">
<path fill="#FFFDFC" opacity="1.000000" stroke="none" 
	d="
M356.000000,141.000000 
	C355.668915,141.666672 355.456726,142.783936 354.982697,142.909027 
	C353.894440,143.196274 352.678589,143.000000 351.514526,143.000000 
	C288.655457,143.000000 225.796387,143.000000 162.635223,142.655060 
	C178.346878,139.138260 190.677979,130.980377 198.031677,115.664734 
	C197.720001,115.180885 197.341263,115.025063 196.503815,114.775162 
	C168.375610,114.740334 140.706131,114.799576 112.701660,114.852600 
	C112.260635,115.227318 112.154579,115.608269 112.102676,116.331566 
	C119.174057,129.890091 130.037720,138.148056 144.492630,141.800522 
	C145.686554,142.102203 146.832016,142.595657 148.000000,143.000000 
	C100.333336,143.000000 52.666672,143.008102 5.000061,142.958069 
	C3.666372,142.956665 2.333338,142.333344 1.453927,141.631042 
	C7.804481,141.262070 13.701107,141.262070 20.061865,141.262070 
	C20.061865,119.960503 20.061865,99.470757 20.061865,78.981010 
	C28.357264,93.457390 36.068344,107.972107 43.326778,122.709755 
	C45.161213,126.434433 47.806831,125.860390 50.702866,125.957954 
	C53.571087,126.054596 55.844715,126.042755 57.510540,122.648048 
	C63.811771,109.807098 70.563545,97.187012 77.168396,84.495560 
	C78.188370,82.535645 79.321632,80.634697 80.402496,78.706482 
	C80.685410,78.804634 80.968315,78.902779 81.251228,79.000931 
	C81.251228,99.596573 81.251228,120.192207 81.251228,141.422104 
	C85.741905,141.422104 89.863197,141.268311 93.967827,141.463989 
	C98.349327,141.672867 100.124626,140.156296 100.092598,135.449234 
	C99.906662,108.119072 100.005669,80.786987 99.990364,53.455563 
	C99.989548,52.008762 99.825394,50.562054 99.708466,48.641998 
	C96.084625,48.641998 92.683754,49.167858 89.507980,48.545364 
	C79.155487,46.516148 73.859825,51.018333 69.837425,60.435398 
	C64.373665,73.226959 57.244606,85.307205 50.628136,98.081818 
	C41.876366,81.370728 33.394318,65.174667 24.889332,48.722313 
	C24.580393,48.320381 24.294388,48.174747 23.565231,47.858978 
	C16.083750,47.782646 9.045416,47.876453 1.754090,47.936310 
	C1.334065,47.934906 1.167032,47.967453 1.000000,48.000000 
	C1.000000,35.312439 1.000000,22.624876 1.458456,9.419755 
	C4.525199,8.902195 7.133486,8.902195 10.273855,8.902195 
	C10.273855,17.878683 10.273855,26.291445 10.273855,34.682446 
	C13.048305,34.682446 15.272145,34.682446 18.046049,34.682446 
	C18.046049,25.919497 18.046049,17.519409 18.046049,8.599024 
	C21.341969,8.599024 24.063166,8.599024 26.955578,8.599024 
	C26.955578,6.065989 26.955578,4.078053 26.969738,1.817714 
	C26.989265,1.363539 26.994633,1.181769 27.000000,1.000000 
	C28.388889,1.000000 29.777779,1.000000 31.554480,1.239237 
	C31.824963,1.793908 31.822969,2.110070 31.600496,2.589863 
	C31.113907,3.199257 30.963133,3.645751 30.701244,4.544590 
	C30.663673,14.642421 30.737221,24.287907 30.828407,34.239479 
	C31.219116,34.655067 31.592188,34.764561 32.404984,34.948219 
	C34.435513,34.949669 36.026321,34.876957 38.097809,34.782272 
	C38.097809,30.324732 38.097809,26.252302 38.097809,22.193794 
	C42.671967,22.193794 46.730305,22.193794 51.347054,22.193794 
	C51.347054,26.581289 51.347054,30.639711 51.347054,34.721916 
	C54.025810,34.721916 56.130688,34.721916 58.786247,34.721916 
	C58.786247,24.226599 58.831158,13.965412 58.708649,3.706222 
	C58.697796,2.797476 57.595417,1.901764 57.000000,0.999999 
	C63.354397,1.000000 69.708794,1.000000 76.328705,1.301093 
	C65.901802,4.072941 60.442654,12.907101 63.159920,23.341953 
	C65.478020,32.243912 75.180473,37.394363 85.025772,34.949226 
	C94.255707,32.656918 99.531784,23.115124 97.007919,13.473084 
	C95.211388,6.609779 89.851219,3.575756 84.000000,1.000000 
	C90.021156,1.000000 96.042305,1.000000 102.508774,1.243026 
	C102.839844,1.803399 102.827347,2.124704 102.586281,2.605050 
	C102.113327,3.196662 101.970688,3.633191 101.718239,4.523720 
	C101.681244,14.635896 101.754059,24.294069 101.843170,34.254700 
	C102.228981,34.659225 102.598473,34.761288 103.407028,34.935760 
	C105.435577,34.933712 107.025063,34.859249 108.988312,34.767277 
	C108.988312,28.153624 108.988312,21.934256 108.988312,15.714888 
	C111.593742,18.746284 113.248543,22.080988 115.155830,25.264416 
	C116.027618,26.719505 117.820030,29.145979 118.461609,28.932108 
	C120.431236,28.275532 122.505241,26.877443 123.698303,25.177744 
	C125.815491,22.161512 127.314537,18.711382 129.072205,15.442787 
	C129.408127,15.533508 129.744064,15.624228 130.079987,15.714949 
	C130.079987,22.079956 130.079987,28.444962 130.079987,34.858875 
	C132.409592,34.858875 134.221909,34.858875 136.316147,34.875553 
	C136.749146,34.589649 136.900223,34.287067 137.154297,33.526108 
	C137.198242,23.049786 137.139175,13.031844 137.065063,2.707320 
	C136.699997,1.933824 136.349991,1.466912 136.000000,1.000000 
	C151.354233,1.000000 166.708450,1.000000 182.401550,1.323212 
	C178.223282,3.292505 174.740601,5.742371 174.884338,11.248118 
	C175.027832,16.744555 178.889099,18.926559 183.193420,20.657021 
	C184.877457,21.334055 186.829834,21.401173 188.436539,22.197136 
	C190.089706,23.016115 191.470444,24.384996 192.970398,25.513254 
	C191.525528,26.648373 190.239029,28.159760 188.605713,28.847128 
	C183.949982,30.806479 181.085358,26.493402 177.028763,25.134960 
	C175.910873,26.805399 174.750580,28.539207 173.615906,30.234716 
	C179.509155,34.965599 185.885422,36.571735 192.152313,34.933525 
	C196.686829,33.748177 200.122498,31.120323 200.591614,26.199860 
	C201.044342,21.451307 198.234421,18.354893 194.076309,16.584108 
	C191.490402,15.482884 188.608154,15.045626 186.088638,13.833043 
	C184.694229,13.161953 183.773071,11.507594 182.638596,10.296455 
	C184.144745,9.490313 185.690964,7.951211 187.148712,8.030864 
	C190.168198,8.195854 193.140671,9.221393 196.374069,9.947311 
	C197.219315,8.544431 198.141388,7.014035 199.314499,5.066995 
	C196.728439,3.629095 194.364227,2.314546 192.000000,0.999998 
	C246.553101,1.000000 301.106201,1.000000 356.000000,1.000000 
	C356.000000,16.352549 356.000000,31.707615 355.749512,47.490326 
	C355.331177,47.939365 355.163330,47.960758 354.545654,47.837154 
	C339.931458,47.714977 325.759369,47.458832 311.605225,47.851151 
	C300.779602,48.151207 292.177856,57.021046 291.018311,68.260445 
	C290.949066,68.499420 291.051514,68.986382 290.952881,69.447174 
	C290.924255,86.610329 290.994263,103.312691 291.019257,120.256866 
	C290.974243,120.498680 291.117493,120.969284 291.069244,121.353828 
	C293.316803,132.496017 300.168243,140.418152 309.797363,140.855499 
	C325.168732,141.553635 340.596222,141.015457 356.000000,141.000000 
M109.400047,79.054794 
	C109.265076,79.703621 109.130104,80.352448 108.674080,81.623329 
	C108.449463,82.748901 108.224846,83.874466 107.738693,85.570976 
	C107.586182,86.379623 107.433670,87.188263 107.057968,88.896187 
	C107.095726,92.604645 107.133476,96.313110 107.140594,100.529877 
	C107.422142,100.651978 107.703690,100.774078 108.905640,101.068504 
	C113.603889,101.020935 118.302132,100.973366 123.757294,101.037727 
	C123.889633,99.335228 124.021980,97.632729 124.312088,95.222839 
	C124.260460,94.503960 124.208839,93.785080 124.473984,92.452232 
	C124.573547,91.302681 124.673103,90.153137 125.017975,88.273369 
	C129.558502,71.895447 143.733307,61.838211 159.014389,64.152367 
	C175.099152,66.588249 185.682465,79.579201 185.162048,97.305115 
	C185.160049,98.199135 185.158051,99.093147 185.420303,100.812622 
	C191.166489,100.812622 196.912674,100.812622 202.594452,100.812622 
	C207.248825,67.678062 177.038696,40.042473 144.555695,47.559353 
	C127.478004,51.511299 115.560684,61.664177 109.400047,79.054794 
M210.029480,49.895439 
	C210.029480,80.284943 210.029480,110.674446 210.029480,141.072113 
	C216.659103,141.072113 222.568970,141.072113 229.115326,141.072113 
	C229.115326,130.872299 229.115326,121.004929 229.115326,110.994850 
	C234.581253,110.994850 239.417862,110.778152 244.215683,111.114540 
	C245.854279,111.229439 247.967728,112.340393 248.880753,113.671051 
	C252.545593,119.012230 256.506531,124.318161 259.091003,130.194366 
	C263.244354,139.637573 269.758026,143.431534 279.762604,141.406998 
	C281.457611,141.063995 283.113678,140.528824 284.787750,140.082428 
	C284.230591,138.616745 283.886383,137.020752 283.082062,135.706329 
	C277.477020,126.546753 271.776611,117.445518 266.014893,108.177788 
	C279.828369,100.124725 286.549194,88.563896 283.485565,73.000153 
	C280.782379,59.267731 271.653625,51.135399 257.502380,48.052330 
	C257.502380,48.052330 257.026154,48.118999 256.109161,47.888348 
	C241.074051,47.920013 226.038940,47.951679 210.471115,48.018356 
	C210.370255,48.333126 210.269394,48.647896 210.029480,49.895439 
M162.090591,4.051886 
	C158.856827,3.474976 155.623062,2.898067 152.275085,2.300779 
	C148.165955,13.319346 144.208923,23.930046 140.094604,34.962547 
	C144.469482,34.948051 148.616837,36.443386 149.700470,30.751333 
	C149.829361,30.074236 151.394669,29.283352 152.339111,29.220493 
	C155.314682,29.022455 158.319061,29.027760 161.296051,29.213921 
	C162.246368,29.273346 163.805069,29.987146 163.965256,30.665905 
	C165.327484,36.437603 169.266602,35.029205 173.670212,34.531277 
	C169.782364,24.282236 166.091141,14.551559 162.090591,4.051886 
z"/>
<path fill="#FA6533" opacity="1.000000" stroke="none" 
	d="
M2.007083,47.970257 
	C9.045416,47.876453 16.083750,47.782646 23.662945,48.062874 
	C24.380053,48.695816 24.616207,48.876381 24.912270,48.978607 
	C33.394318,65.174667 41.876366,81.370728 50.628136,98.081818 
	C57.244606,85.307205 64.373665,73.226959 69.837425,60.435398 
	C73.859825,51.018333 79.155487,46.516148 89.507980,48.545364 
	C92.683754,49.167858 96.084625,48.641998 99.708466,48.641998 
	C99.825394,50.562054 99.989548,52.008762 99.990364,53.455563 
	C100.005669,80.786987 99.906662,108.119072 100.092598,135.449234 
	C100.124626,140.156296 98.349327,141.672867 93.967827,141.463989 
	C89.863197,141.268311 85.741905,141.422104 81.251228,141.422104 
	C81.251228,120.192207 81.251228,99.596573 81.251228,79.000931 
	C80.968315,78.902779 80.685410,78.804634 80.402496,78.706482 
	C79.321632,80.634697 78.188370,82.535645 77.168396,84.495560 
	C70.563545,97.187012 63.811771,109.807098 57.510540,122.648048 
	C55.844715,126.042755 53.571087,126.054596 50.702866,125.957954 
	C47.806831,125.860390 45.161213,126.434433 43.326778,122.709755 
	C36.068344,107.972107 28.357264,93.457390 20.061865,78.981010 
	C20.061865,99.470757 20.061865,119.960503 20.061865,141.262070 
	C13.701107,141.262070 7.804481,141.262070 1.453927,141.131042 
	C1.000000,110.645775 1.000000,80.291542 1.222589,49.357033 
	C1.719321,48.568432 1.906622,48.299599 2.007083,47.970257 
z"/>
<path fill="#FA6533" opacity="1.000000" stroke="none" 
	d="
M291.087555,68.021469 
	C292.177856,57.021046 300.779602,48.151207 311.605225,47.851151 
	C325.759369,47.458832 339.931458,47.714977 354.653748,48.059494 
	C355.409790,48.706837 355.672546,48.897896 356.000000,49.000000 
	C356.000000,54.022091 356.000000,59.044186 355.739136,64.503685 
	C355.306793,64.905998 355.135345,64.870903 354.864258,64.695206 
	C354.514679,64.680069 354.264679,64.805519 353.551819,65.016617 
	C340.619690,65.114784 328.150238,65.171219 315.681335,65.111366 
	C312.228790,65.094803 309.565521,66.166901 309.350861,69.878632 
	C309.065552,74.811089 309.280457,79.772469 309.280457,85.354568 
	C311.522827,85.354568 313.292206,85.336594 315.061127,85.357475 
	C326.684937,85.494667 338.308624,85.640244 350.061066,86.057182 
	C350.508484,86.568382 350.827179,86.805466 351.240540,87.498245 
	C351.246063,92.630043 351.156921,97.306145 350.594299,101.981979 
	C338.493958,101.987328 326.866913,101.955307 315.240692,102.039284 
	C313.504181,102.051826 311.771606,102.609039 309.735779,103.213081 
	C309.369232,108.083061 308.879730,112.704384 309.411530,117.205025 
	C309.692902,119.586311 311.751068,121.757652 313.091766,124.186310 
	C313.444794,124.256859 313.713074,124.164871 314.445221,123.992004 
	C327.944611,123.963051 340.980164,124.014969 354.090942,124.226562 
	C354.431274,124.309052 354.696411,124.231865 355.219971,124.107986 
	C355.652252,124.040855 355.826141,124.020424 356.000000,124.000000 
	C356.000000,129.354935 356.000000,134.709854 356.000000,140.532410 
	C340.596222,141.015457 325.168732,141.553635 309.797363,140.855499 
	C300.168243,140.418152 293.316803,132.496017 291.220062,121.261368 
	C291.300842,120.527931 291.182556,120.271492 291.064270,120.015053 
	C290.994263,103.312691 290.924255,86.610329 291.112152,69.363464 
	C291.433960,68.718773 291.574799,68.564850 291.548706,68.527466 
	C291.419159,68.341919 291.245605,68.187111 291.087555,68.021469 
z"/>
<path fill="#FFFCFB" opacity="1.000000" stroke="none" 
	d="
M349.932373,85.783066 
	C338.308624,85.640244 326.684937,85.494667 315.061127,85.357475 
	C313.292206,85.336594 311.522827,85.354568 309.280457,85.354568 
	C309.280457,79.772469 309.065552,74.811089 309.350861,69.878632 
	C309.565521,66.166901 312.228790,65.094803 315.681335,65.111366 
	C328.150238,65.171219 340.619690,65.114784 353.796265,65.064232 
	C354.503571,65.026207 354.963867,64.835800 354.963867,64.835800 
	C355.135345,64.870903 355.306793,64.905998 355.739136,64.970551 
	C356.000000,84.354225 356.000000,103.708458 356.000000,123.531342 
	C355.826141,124.020424 355.652252,124.040855 354.989807,124.018028 
	C354.501221,123.974770 354.015717,124.066895 354.015717,124.066895 
	C340.980164,124.014969 327.944611,123.963051 314.204102,123.930923 
	C313.499115,123.950722 313.007050,124.023781 313.007050,124.023773 
	C311.751068,121.757652 309.692902,119.586311 309.411530,117.205025 
	C308.879730,112.704384 309.369232,108.083061 310.200745,103.246696 
	C322.858032,102.984985 334.749115,103.023575 346.639526,102.947281 
	C348.117615,102.937790 349.591797,102.318802 351.067810,101.982246 
	C351.156921,97.306145 351.246063,92.630043 351.223999,87.148537 
	C350.719360,86.156448 350.325867,85.969757 349.932373,85.783066 
z"/>
<path fill="#FA6432" opacity="1.000000" stroke="none" 
	d="
M197.964615,115.992744 
	C190.677979,130.980377 178.346878,139.138260 162.166565,142.655060 
	C160.611115,143.000000 159.222214,143.000000 157.175171,142.719986 
	C154.678009,142.626648 152.839005,142.813324 151.000000,143.000000 
	C150.250000,143.000000 149.500000,143.000000 148.375000,143.000000 
	C146.832016,142.595657 145.686554,142.102203 144.492630,141.800522 
	C130.037720,138.148056 119.174057,129.890091 112.331116,116.206894 
	C112.682480,115.446182 112.859558,115.152504 113.036636,114.858826 
	C140.706131,114.799576 168.375610,114.740334 196.606201,115.015205 
	C197.433060,115.563789 197.698837,115.778267 197.964615,115.992744 
z"/>
<path fill="#FA6634" opacity="1.000000" stroke="none" 
	d="
M101.826866,33.952244 
	C101.754059,24.294069 101.681244,14.635896 102.000626,4.333285 
	C102.567413,3.275888 102.742012,2.862927 102.916603,2.449965 
	C102.827347,2.124704 102.839844,1.803399 102.977043,1.243026 
	C104.388893,1.000000 105.777779,1.000000 107.718254,1.319517 
	C112.165016,6.811238 116.060196,11.983441 119.882523,17.058905 
	C122.369186,12.731687 125.163254,7.869533 128.411240,3.007463 
	C131.603485,3.009665 134.341797,3.011785 137.080109,3.013904 
	C137.139175,13.031844 137.198242,23.049786 136.940826,33.616112 
	C136.344696,34.325462 136.147980,34.556923 136.034225,34.858875 
	C134.221909,34.858875 132.409592,34.858875 130.079987,34.858875 
	C130.079987,28.444962 130.079987,22.079956 130.079987,15.714949 
	C129.744064,15.624228 129.408127,15.533508 129.072205,15.442787 
	C127.314537,18.711382 125.815491,22.161512 123.698303,25.177744 
	C122.505241,26.877443 120.431236,28.275532 118.461609,28.932108 
	C117.820030,29.145979 116.027618,26.719505 115.155830,25.264416 
	C113.248543,22.080988 111.593742,18.746284 108.988312,15.714888 
	C108.988312,21.934256 108.988312,28.153624 108.988312,34.767277 
	C107.025063,34.859249 105.435577,34.933712 103.271484,34.724213 
	C102.406876,34.277580 102.116875,34.114910 101.826866,33.952244 
z"/>
<path fill="#FA6735" opacity="1.000000" stroke="none" 
	d="
M83.562500,1.000000 
	C89.851219,3.575756 95.211388,6.609779 97.007919,13.473084 
	C99.531784,23.115124 94.255707,32.656918 85.025772,34.949226 
	C75.180473,37.394363 65.478020,32.243912 63.159920,23.341953 
	C60.442654,12.907101 65.901802,4.072941 76.797104,1.301093 
	C79.041664,1.000000 81.083336,1.000000 83.562500,1.000000 
M83.667458,27.778536 
	C89.727654,24.196890 91.633308,19.074453 88.900543,13.711887 
	C86.518616,9.037784 81.120781,7.081628 76.201294,9.109735 
	C71.624100,10.996727 69.122528,16.164494 70.462959,20.963997 
	C72.022301,26.547264 75.889923,28.729601 83.667458,27.778536 
z"/>
<path fill="#FA6A3B" opacity="1.000000" stroke="none" 
	d="
M30.810768,33.933392 
	C30.737221,24.287907 30.663673,14.642421 30.989323,4.346434 
	C31.571115,3.272942 31.753714,2.849951 31.936314,2.426961 
	C31.822969,2.110070 31.824963,1.793908 31.971146,1.239237 
	C33.066669,1.000000 34.133339,1.000000 35.776787,1.366130 
	C36.882103,3.089436 37.769684,4.421430 37.866993,5.808851 
	C38.093456,9.037711 37.939178,12.293274 37.939178,16.258976 
	C42.789574,15.662009 46.876896,15.158957 50.667450,14.692431 
	C51.150101,9.733034 51.575050,5.366517 52.000000,1.000000 
	C53.388889,1.000000 54.777779,1.000000 56.583336,0.999999 
	C57.595417,1.901764 58.697796,2.797476 58.708649,3.706222 
	C58.831158,13.965412 58.786247,24.226599 58.786247,34.721916 
	C56.130688,34.721916 54.025810,34.721916 51.347054,34.721916 
	C51.347054,30.639711 51.347054,26.581289 51.347054,22.193794 
	C46.730305,22.193794 42.671967,22.193794 38.097809,22.193794 
	C38.097809,26.252302 38.097809,30.324732 38.097809,34.782272 
	C36.026321,34.876957 34.435513,34.949669 32.270164,34.730293 
	C31.400667,34.269936 31.105719,34.101662 30.810768,33.933392 
z"/>
<path fill="#FA6634" opacity="1.000000" stroke="none" 
	d="
M191.550018,0.999998 
	C194.364227,2.314546 196.728439,3.629095 199.314499,5.066995 
	C198.141388,7.014035 197.219315,8.544431 196.374069,9.947311 
	C193.140671,9.221393 190.168198,8.195854 187.148712,8.030864 
	C185.690964,7.951211 184.144745,9.490313 182.638596,10.296455 
	C183.773071,11.507594 184.694229,13.161953 186.088638,13.833043 
	C188.608154,15.045626 191.490402,15.482884 194.076309,16.584108 
	C198.234421,18.354893 201.044342,21.451307 200.591614,26.199860 
	C200.122498,31.120323 196.686829,33.748177 192.152313,34.933525 
	C185.885422,36.571735 179.509155,34.965599 173.615906,30.234716 
	C174.750580,28.539207 175.910873,26.805399 177.028763,25.134960 
	C181.085358,26.493402 183.949982,30.806479 188.605713,28.847128 
	C190.239029,28.159760 191.525528,26.648373 192.970398,25.513254 
	C191.470444,24.384996 190.089706,23.016115 188.436539,22.197136 
	C186.829834,21.401173 184.877457,21.334055 183.193420,20.657021 
	C178.889099,18.926559 175.027832,16.744555 174.884338,11.248118 
	C174.740601,5.742371 178.223282,3.292505 182.870209,1.323212 
	C185.700012,1.000000 188.400024,1.000000 191.550018,0.999998 
z"/>
<path fill="#FA6B3C" opacity="1.000000" stroke="none" 
	d="
M26.955578,2.090119 
	C26.955578,4.078053 26.955578,6.065989 26.955578,8.599024 
	C24.063166,8.599024 21.341969,8.599024 18.046049,8.599024 
	C18.046049,17.519409 18.046049,25.919497 18.046049,34.682446 
	C15.272145,34.682446 13.048305,34.682446 10.273855,34.682446 
	C10.273855,26.291445 10.273855,17.878683 10.273855,8.902195 
	C7.133486,8.902195 4.525199,8.902195 1.458456,8.951097 
	C1.000000,7.285642 1.000000,5.571283 1.212544,3.344275 
	C1.700742,2.665141 1.879712,2.426225 2.427348,2.036602 
	C10.272478,2.005076 17.652256,2.051824 25.105143,2.261132 
	C25.437477,2.326278 25.696703,2.228865 26.204151,2.080241 
	C26.620108,2.049393 26.787844,2.069756 26.955578,2.090119 
z"/>
<path fill="#FFFDFC" opacity="1.000000" stroke="none" 
	d="
M51.533138,1.000000 
	C51.575050,5.366517 51.150101,9.733034 50.667450,14.692431 
	C46.876896,15.158957 42.789574,15.662009 37.939178,16.258976 
	C37.939178,12.293274 38.093456,9.037711 37.866993,5.808851 
	C37.769684,4.421430 36.882103,3.089436 36.176781,1.366130 
	C41.022091,1.000000 46.044186,1.000000 51.533138,1.000000 
z"/>
<path fill="#FFFCFB" opacity="1.000000" stroke="none" 
	d="
M127.957314,3.007380 
	C125.163254,7.869533 122.369186,12.731687 119.882523,17.058905 
	C116.060196,11.983441 112.165016,6.811238 108.134918,1.319517 
	C114.687645,1.000000 121.375282,1.000000 128.474350,1.289119 
	C128.576294,2.054618 128.266800,2.530998 127.957314,3.007380 
z"/>
<path fill="#FEE7E0" opacity="1.000000" stroke="none" 
	d="
M26.969738,1.817714 
	C26.787844,2.069756 26.620108,2.049393 25.974751,2.027609 
	C25.497129,2.026187 25.032034,2.098572 25.032034,2.098572 
	C17.652256,2.051824 10.272478,2.005076 2.189219,1.987981 
	C1.485738,2.017633 1.000000,2.000000 1.000000,2.000000 
	C1.650164,1.666667 2.297838,1.049080 2.950871,1.043362 
	C10.654339,0.975904 18.358608,1.000000 26.531334,1.000000 
	C26.994633,1.181769 26.989265,1.363539 26.969738,1.817714 
z"/>
<path fill="#FA591D" opacity="1.000000" stroke="none" 
	d="
M128.411240,3.007463 
	C128.266800,2.530998 128.576294,2.054618 128.942886,1.289119 
	C131.041748,1.000000 133.083496,1.000000 135.562622,1.000000 
	C136.349991,1.466912 136.699997,1.933824 137.065048,2.707320 
	C134.341797,3.011785 131.603485,3.009665 128.411240,3.007463 
z"/>
<path fill="#FA6B3C" opacity="1.000000" stroke="none" 
	d="
M151.428467,143.000000 
	C152.839005,142.813324 154.678009,142.626648 156.758514,142.719986 
	C155.285645,143.000000 153.571289,143.000000 151.428467,143.000000 
z"/>
<path fill="#FA5718" opacity="1.000000" stroke="none" 
	d="
M1.000000,2.250000 
	C1.000000,2.000000 1.485738,2.017633 1.723867,2.066254 
	C1.879712,2.426225 1.700742,2.665141 1.212544,2.915812 
	C1.000000,3.000000 1.000000,2.500000 1.000000,2.250000 
z"/>
<path fill="#FA5C23" opacity="1.000000" stroke="none" 
	d="
M356.000000,48.750000 
	C355.672546,48.897896 355.409790,48.706837 355.103577,48.204491 
	C355.163330,47.960758 355.331177,47.939365 355.749512,47.958984 
	C356.000000,48.000000 356.000000,48.500000 356.000000,48.750000 
z"/>
<path fill="#FA5C23" opacity="1.000000" stroke="none" 
	d="
M1.754090,47.936310 
	C1.906622,48.299599 1.719321,48.568432 1.222589,48.888374 
	C1.000000,49.000000 1.000000,48.500000 1.000000,48.250000 
	C1.167032,47.967453 1.334065,47.934906 1.754090,47.936310 
z"/>
<path fill="#FA6533" opacity="1.000000" stroke="none" 
	d="
M257.957184,48.208488 
	C271.653625,51.135399 280.782379,59.267731 283.485565,73.000153 
	C286.549194,88.563896 279.828369,100.124725 266.014893,108.177788 
	C271.776611,117.445518 277.477020,126.546753 283.082062,135.706329 
	C283.886383,137.020752 284.230591,138.616745 284.787750,140.082428 
	C283.113678,140.528824 281.457611,141.063995 279.762604,141.406998 
	C269.758026,143.431534 263.244354,139.637573 259.091003,130.194366 
	C256.506531,124.318161 252.545593,119.012230 248.880753,113.671051 
	C247.967728,112.340393 245.854279,111.229439 244.215683,111.114540 
	C239.417862,110.778152 234.581253,110.994850 229.115326,110.994850 
	C229.115326,121.004929 229.115326,130.872299 229.115326,141.072113 
	C222.568970,141.072113 216.659103,141.072113 210.029480,141.072113 
	C210.029480,110.674446 210.029480,80.284943 210.289490,49.315193 
	C210.774597,48.528938 210.926041,48.278404 211.003830,47.983345 
	C226.038940,47.951679 241.074051,47.920013 256.644470,48.152027 
	C257.179749,48.415707 257.608093,48.538685 257.608093,48.538685 
	C257.608093,48.538685 257.957184,48.208488 257.957184,48.208488 
M235.604401,65.140244 
	C233.502350,65.140244 231.400299,65.140244 229.340363,65.140244 
	C229.340363,74.839981 229.340363,83.891151 229.340363,93.138138 
	C237.205902,93.138138 244.691925,93.246361 252.173431,93.109261 
	C260.506226,92.956566 266.886414,86.717422 266.715332,79.143570 
	C266.537811,71.284378 260.419312,65.373833 252.064590,65.168579 
	C246.906769,65.041862 241.743393,65.141998 235.604401,65.140244 
z"/>
<path fill="#FA6533" opacity="1.000000" stroke="none" 
	d="
M185.614059,96.803299 
	C185.682465,79.579201 175.099152,66.588249 159.014389,64.152367 
	C143.733307,61.838211 129.558502,71.895447 124.565804,88.715996 
	C124.128159,90.461151 124.142685,91.763672 124.157211,93.066200 
	C124.208839,93.785080 124.260460,94.503960 123.932541,95.810188 
	C123.368797,97.906960 123.184593,99.416374 123.000381,100.925797 
	C118.302132,100.973366 113.603889,101.020935 108.356697,100.797058 
	C107.647339,100.292229 107.435165,100.124214 107.171234,100.021568 
	C107.133476,96.313110 107.095726,92.604645 107.471466,88.382996 
	C107.923393,86.913223 107.961815,85.956627 108.000229,85.000038 
	C108.224846,83.874466 108.449463,82.748901 109.101089,81.095505 
	C109.642731,79.901314 109.757370,79.234932 109.872009,78.568558 
	C115.560684,61.664177 127.478004,51.511299 144.555695,47.559353 
	C177.038696,40.042473 207.248825,67.678062 202.594452,100.812622 
	C196.912674,100.812622 191.166489,100.812622 185.620834,100.336746 
	C185.752258,98.841682 185.683167,97.822495 185.614059,96.803299 
z"/>
<path fill="#FA6736" opacity="1.000000" stroke="none" 
	d="
M162.245239,4.436385 
	C166.091141,14.551559 169.782364,24.282236 173.670212,34.531277 
	C169.266602,35.029205 165.327484,36.437603 163.965256,30.665905 
	C163.805069,29.987146 162.246368,29.273346 161.296051,29.213921 
	C158.319061,29.027760 155.314682,29.022455 152.339111,29.220493 
	C151.394669,29.283352 149.829361,30.074236 149.700470,30.751333 
	C148.616837,36.443386 144.469482,34.948051 140.094604,34.962547 
	C144.208923,23.930046 148.165955,13.319346 152.275085,2.300779 
	C155.623062,2.898067 158.856827,3.474976 162.245239,4.436385 
M160.624725,21.766714 
	C159.498901,18.226608 158.373077,14.686502 157.247253,11.146397 
	C156.912766,11.238274 156.578278,11.330151 156.243805,11.422029 
	C155.081970,14.797548 153.920135,18.173069 152.547775,22.160246 
	C155.381912,22.160246 157.632416,22.160246 160.624725,21.766714 
z"/>
<path fill="#FA6432" opacity="1.000000" stroke="none" 
	d="
M123.378845,100.981766 
	C123.184593,99.416374 123.368797,97.906960 123.853661,96.163879 
	C124.021980,97.632729 123.889633,99.335228 123.378845,100.981766 
z"/>
<path fill="#FA6432" opacity="1.000000" stroke="none" 
	d="
M124.315598,92.759216 
	C124.142685,91.763672 124.128159,90.461151 124.443146,89.081100 
	C124.673103,90.153137 124.573547,91.302681 124.315598,92.759216 
z"/>
<path fill="#FA5D26" opacity="1.000000" stroke="none" 
	d="
M185.388062,97.054207 
	C185.683167,97.822495 185.752258,98.841682 185.488708,99.924026 
	C185.158051,99.093147 185.160049,98.199135 185.388062,97.054207 
z"/>
<path fill="#FA6432" opacity="1.000000" stroke="none" 
	d="
M107.869461,85.285507 
	C107.961815,85.956627 107.923393,86.913223 107.583069,87.933365 
	C107.433670,87.188263 107.586182,86.379623 107.869461,85.285507 
z"/>
<path fill="#FA6432" opacity="1.000000" stroke="none" 
	d="
M109.636032,78.811676 
	C109.757370,79.234932 109.642731,79.901314 109.261612,80.784485 
	C109.130104,80.352448 109.265076,79.703621 109.636032,78.811676 
z"/>
<path fill="#FA5D26" opacity="1.000000" stroke="none" 
	d="
M101.843170,34.254700 
	C102.116875,34.114910 102.406876,34.277580 102.832428,34.651798 
	C102.598473,34.761288 102.228981,34.659225 101.843170,34.254700 
z"/>
<path fill="#FA591D" opacity="1.000000" stroke="none" 
	d="
M291.019257,120.256866 
	C291.182556,120.271492 291.300842,120.527931 291.268311,120.876831 
	C291.117493,120.969284 290.974243,120.498680 291.019257,120.256866 
z"/>
<path fill="#FA5C23" opacity="1.000000" stroke="none" 
	d="
M198.031677,115.664734 
	C197.698837,115.778267 197.433060,115.563789 197.064911,115.109276 
	C197.341263,115.025063 197.720001,115.180885 198.031677,115.664734 
z"/>
<path fill="#FA5D26" opacity="1.000000" stroke="none" 
	d="
M31.600496,2.589862 
	C31.753714,2.849951 31.571115,3.272942 31.100439,3.894088 
	C30.963133,3.645751 31.113907,3.199257 31.600496,2.589862 
z"/>
<path fill="#FA5C23" opacity="1.000000" stroke="none" 
	d="
M112.701660,114.852600 
	C112.859558,115.152504 112.682480,115.446182 112.276962,115.864532 
	C112.154579,115.608269 112.260635,115.227318 112.701660,114.852600 
z"/>
<path fill="#FA5D26" opacity="1.000000" stroke="none" 
	d="
M102.586281,2.605050 
	C102.742012,2.862927 102.567413,3.275888 102.110435,3.879284 
	C101.970688,3.633191 102.113327,3.196662 102.586281,2.605050 
z"/>
<path fill="#FA5D26" opacity="1.000000" stroke="none" 
	d="
M30.828407,34.239479 
	C31.105719,34.101662 31.400667,34.269936 31.830439,34.656128 
	C31.592188,34.764561 31.219116,34.655067 30.828407,34.239479 
z"/>
<path fill="#FA6432" opacity="1.000000" stroke="none" 
	d="
M107.155914,100.275726 
	C107.435165,100.124214 107.647339,100.292229 107.896500,100.710892 
	C107.703690,100.774078 107.422142,100.651978 107.155914,100.275726 
z"/>
<path fill="#FA591D" opacity="1.000000" stroke="none" 
	d="
M136.316147,34.875553 
	C136.147980,34.556923 136.344696,34.325462 136.837830,34.074493 
	C136.900223,34.287067 136.749146,34.589649 136.316147,34.875553 
z"/>
<path fill="#FA591D" opacity="1.000000" stroke="none" 
	d="
M291.018311,68.260445 
	C291.245605,68.187111 291.419159,68.341919 291.548706,68.527466 
	C291.574799,68.564850 291.433960,68.718773 291.210785,68.902679 
	C291.051514,68.986382 290.949066,68.499420 291.018311,68.260445 
z"/>
<path fill="#FA5C23" opacity="1.000000" stroke="none" 
	d="
M24.889334,48.722313 
	C24.616207,48.876381 24.380053,48.695816 24.106094,48.233013 
	C24.294388,48.174747 24.580393,48.320381 24.889334,48.722313 
z"/>
<path fill="#FA5C23" opacity="1.000000" stroke="none" 
	d="
M210.737473,48.000851 
	C210.926041,48.278404 210.774597,48.528938 210.359009,48.848801 
	C210.269394,48.647896 210.370255,48.333126 210.737473,48.000851 
z"/>
<path fill="#FA5C23" opacity="1.000000" stroke="none" 
	d="
M257.729797,48.130409 
	C257.957184,48.208488 257.608093,48.538685 257.608093,48.538685 
	C257.608093,48.538685 257.179749,48.415707 257.102966,48.267353 
	C257.026154,48.118999 257.502380,48.052330 257.729797,48.130409 
z"/>
<path fill="#FA540D" opacity="1.000000" stroke="none" 
	d="
M350.594299,101.981979 
	C349.591797,102.318802 348.117615,102.937790 346.639526,102.947281 
	C334.749115,103.023575 322.858032,102.984985 310.502197,102.947899 
	C311.771606,102.609039 313.504181,102.051826 315.240692,102.039284 
	C326.866913,101.955307 338.493958,101.987328 350.594299,101.981979 
z"/>
<path fill="#FA5718" opacity="1.000000" stroke="none" 
	d="
M354.090942,124.226562 
	C354.015717,124.066895 354.501221,123.974770 354.731384,124.064728 
	C354.696411,124.231865 354.431274,124.309052 354.090942,124.226562 
z"/>
<path fill="#FA5718" opacity="1.000000" stroke="none" 
	d="
M313.091766,124.186310 
	C313.007050,124.023781 313.499115,123.950722 313.740234,124.011803 
	C313.713074,124.164871 313.444794,124.256859 313.091766,124.186310 
z"/>
<path fill="#FA5D26" opacity="1.000000" stroke="none" 
	d="
M350.061066,86.057175 
	C350.325867,85.969757 350.719360,86.156448 351.129395,86.692841 
	C350.827179,86.805466 350.508484,86.568382 350.061066,86.057175 
z"/>
<path fill="#FA5C23" opacity="1.000000" stroke="none" 
	d="
M354.864258,64.695206 
	C354.963867,64.835800 354.503571,65.026207 354.259125,64.978592 
	C354.264679,64.805519 354.514679,64.680069 354.864258,64.695206 
z"/>
<path fill="#FFFCFB" opacity="1.000000" stroke="none" 
	d="
M83.264069,27.869017 
	C75.889923,28.729601 72.022301,26.547264 70.462959,20.963997 
	C69.122528,16.164494 71.624100,10.996727 76.201294,9.109735 
	C81.120781,7.081628 86.518616,9.037784 88.900543,13.711887 
	C91.633308,19.074453 89.727654,24.196890 83.264069,27.869017 
z"/>
<path fill="#FA5718" opacity="1.000000" stroke="none" 
	d="
M25.105143,2.261132 
	C25.032034,2.098572 25.497129,2.026187 25.726528,2.078819 
	C25.696703,2.228865 25.437477,2.326278 25.105143,2.261132 
z"/>
<path fill="#FFFDFD" opacity="1.000000" stroke="none" 
	d="
M236.093445,65.140274 
	C241.743393,65.141998 246.906769,65.041862 252.064590,65.168579 
	C260.419312,65.373833 266.537811,71.284378 266.715332,79.143570 
	C266.886414,86.717422 260.506226,92.956566 252.173431,93.109261 
	C244.691925,93.246361 237.205902,93.138138 229.340363,93.138138 
	C229.340363,83.891151 229.340363,74.839981 229.340363,65.140244 
	C231.400299,65.140244 233.502350,65.140244 236.093445,65.140274 
z"/>
<path fill="#FFF5F2" opacity="1.000000" stroke="none" 
	d="
M160.253815,21.963480 
	C157.632416,22.160246 155.381912,22.160246 152.547775,22.160246 
	C153.920135,18.173069 155.081970,14.797548 156.243805,11.422029 
	C156.578278,11.330151 156.912766,11.238274 157.247253,11.146397 
	C158.373077,14.686502 159.498901,18.226608 160.253815,21.963480 
z"/>
</svg>